HIERARCHY
ROOT Hips
{
  OFFSET 5.84602e-005 68.8428 3.50346
  CHANNELS 6 Xposition Yposition Zposition Zrotation Xrotation Yrotation
  JOINT Spine
  {
    OFFSET 0 8.597 -4.6522
    CHANNELS 3 Zrotation Xrotation Yrotation
    JOINT Spine1
    {
      OFFSET 0 7.8454 0.4098
      CHANNELS 3 Zrotation Xrotation Yrotation
      JOINT Spine2
      {
        OFFSET 0 9.7078 -2.1609
        CHANNELS 3 Zrotation Xrotation Yrotation
        JOINT Neck
        {
          OFFSET 0 21.8761 -0.4549
          CHANNELS 3 Zrotation Xrotation Yrotation
          JOINT Head
          {
            OFFSET 0 12.3537 3.3602
            CHANNELS 3 Zrotation Xrotation Yrotation
            End Site
            {
              OFFSET 0.0001 18.9506 0.5657
            }
          }
        }
        JOINT LeftShoulder
        {
          OFFSET 2.2086 21.1115 7.2329
          CHANNELS 3 Zrotation Xrotation Yrotation
          JOINT LeftArm
          {
            OFFSET 13.1193 3.0282 -4.8998
            CHANNELS 3 Zrotation Xrotation Yrotation
            JOINT LeftForeArm
            {
              OFFSET 27.4081 -0.0973053 -0.2375
              CHANNELS 3 Zrotation Xrotation Yrotation
              JOINT LeftHand
              {
                OFFSET 22.8641 0.0662994 -0.1369
                CHANNELS 3 Zrotation Xrotation Yrotation
                JOINT LeftHandIndex1
                {
                  OFFSET 8.8614 0.775009 2.4612
                  CHANNELS 3 Zrotation Xrotation Yrotation
                  JOINT LeftHandIndex2
                  {
                    OFFSET 3.3146 -0.808304 0.5841
                    CHANNELS 3 Zrotation Xrotation Yrotation
                    JOINT LeftHandIndex3
                    {
                      OFFSET 2.2628 -0.552002 0.3989
                      CHANNELS 3 Zrotation Xrotation Yrotation
                      End Site
                      {
                        OFFSET 1.6102 -0.4807 0.2612
                      }
                    }
                  }
                }
                JOINT LeftHandMiddle1
                {
                  OFFSET 8.9937 0.895004 0.2143
                  CHANNELS 3 Zrotation Xrotation Yrotation
                  JOINT LeftHandMiddle2
                  {
                    OFFSET 4.0984 0.0113983 -0.0242
                    CHANNELS 3 Zrotation Xrotation Yrotation
                    JOINT LeftHandMiddle3
                    {
                      OFFSET 2.2716 0.00689697 -0.0138001
                      CHANNELS 3 Zrotation Xrotation Yrotation
                      End Site
                      {
                        OFFSET 2.0404 -0.1441 0.0027
                      }
                    }
                  }
                }
                JOINT LeftHandRing1
                {
                  OFFSET 8.5234 0.597198 -2.0164
                  CHANNELS 3 Zrotation Xrotation Yrotation
                  JOINT LeftHandRing2
                  {
                    OFFSET 3.7188 -0.188293 -0.2328
                    CHANNELS 3 Zrotation Xrotation Yrotation
                    JOINT LeftHandRing3
                    {
                      OFFSET 2.1191 -0.106598 -0.1332
                      CHANNELS 3 Zrotation Xrotation Yrotation
                      End Site
                      {
                        OFFSET 1.8737 -0.2304 -0.0886
                      }
                    }
                  }
                }
                JOINT LeftHandPinky1
                {
                  OFFSET 7.9094 -0.601089 -3.4825
                  CHANNELS 3 Zrotation Xrotation Yrotation
                  JOINT LeftHandPinky2
                  {
                    OFFSET 2.2874 -0.477005 -0.6314
                    CHANNELS 3 Zrotation Xrotation Yrotation
                    JOINT LeftHandPinky3
                    {
                      OFFSET 1.6774 -0.349396 -0.4633
                      CHANNELS 3 Zrotation Xrotation Yrotation
                      End Site
                      {
                        OFFSET 1.4888 -0.4091 -0.3416
                      }
                    }
                  }
                }
                JOINT LeftHandThumb1
                {
                  OFFSET 1.833 -1.3875 1.3896
                  CHANNELS 3 Zrotation Xrotation Yrotation
                  JOINT LeftHandThumb2
                  {
                    OFFSET 3.4129 -1.121 2.5732
                    CHANNELS 3 Zrotation Xrotation Yrotation
                    JOINT LeftHandThumb3
                    {
                      OFFSET 2.2474 -0.804199 1.6192
                      CHANNELS 3 Zrotation Xrotation Yrotation
                      End Site
                      {
                        OFFSET 1.6527 -0.5689 1.1317
                      }
                    }
                  }
                }
              }
            }
          }
        }
        JOINT RightShoulder
        {
          OFFSET -2.2086 21.1115 7.2329
          CHANNELS 3 Zrotation Xrotation Yrotation
          JOINT RightArm
          {
            OFFSET -13.1216 3.0287 -4.9007
            CHANNELS 3 Zrotation Xrotation Yrotation
            JOINT RightForeArm
            {
              OFFSET -27.4081 -0.0973053 -0.2375
              CHANNELS 3 Zrotation Xrotation Yrotation
              JOINT RightHand
              {
                OFFSET -22.8641 0.0664063 -0.1369
                CHANNELS 3 Zrotation Xrotation Yrotation
                JOINT RightHandIndex1
                {
                  OFFSET -8.8614 0.774994 2.4612
                  CHANNELS 3 Zrotation Xrotation Yrotation
                  JOINT RightHandIndex2
                  {
                    OFFSET -3.3146 -0.808304 0.5841
                    CHANNELS 3 Zrotation Xrotation Yrotation
                    JOINT RightHandIndex3
                    {
                      OFFSET -2.2628 -0.552002 0.3989
                      CHANNELS 3 Zrotation Xrotation Yrotation
                      End Site
                      {
                        OFFSET -1.6102 -0.4807 0.2612
                      }
                    }
                  }
                }
                JOINT RightHandMiddle1
                {
                  OFFSET -8.9937 0.894989 0.2143
                  CHANNELS 3 Zrotation Xrotation Yrotation
                  JOINT RightHandMiddle2
                  {
                    OFFSET -4.0984 0.0113983 -0.0242
                    CHANNELS 3 Zrotation Xrotation Yrotation
                    JOINT RightHandMiddle3
                    {
                      OFFSET -2.2716 0.00691223 -0.0138001
                      CHANNELS 3 Zrotation Xrotation Yrotation
                      End Site
                      {
                        OFFSET -2.0404 -0.1441 0.0027
                      }
                    }
                  }
                }
                JOINT RightHandRing1
                {
                  OFFSET -8.5234 0.597198 -2.0164
                  CHANNELS 3 Zrotation Xrotation Yrotation
                  JOINT RightHandRing2
                  {
                    OFFSET -3.7188 -0.188309 -0.2328
                    CHANNELS 3 Zrotation Xrotation Yrotation
                    JOINT RightHandRing3
                    {
                      OFFSET -2.1191 -0.106598 -0.1332
                      CHANNELS 3 Zrotation Xrotation Yrotation
                      End Site
                      {
                        OFFSET -1.8737 -0.2304 -0.0886
                      }
                    }
                  }
                }
                JOINT RightHandPinky1
                {
                  OFFSET -7.9094 -0.601105 -3.4825
                  CHANNELS 3 Zrotation Xrotation Yrotation
                  JOINT RightHandPinky2
                  {
                    OFFSET -2.2874 -0.477005 -0.6314
                    CHANNELS 3 Zrotation Xrotation Yrotation
                    JOINT RightHandPinky3
                    {
                      OFFSET -1.6774 -0.349396 -0.4633
                      CHANNELS 3 Zrotation Xrotation Yrotation
                      End Site
                      {
                        OFFSET -1.4888 -0.4091 -0.3416
                      }
                    }
                  }
                }
                JOINT RightHandThumb1
                {
                  OFFSET -1.833 -1.38751 1.3896
                  CHANNELS 3 Zrotation Xrotation Yrotation
                  JOINT RightHandThumb2
                  {
                    OFFSET -3.41299 -1.12099 2.5732
                    CHANNELS 3 Zrotation Xrotation Yrotation
                    JOINT RightHandThumb3
                    {
                      OFFSET -2.24741 -0.804108 1.6192
                      CHANNELS 3 Zrotation Xrotation Yrotation
                      End Site
                      {
                        OFFSET -1.6527 -0.5689 1.1317
                      }
                    }
                  }
                }
              }
            }
          }
        }
      }
    }
  }
  JOINT RightUpLeg
  {
    OFFSET -9.1966 3.8861 -0.7581
    CHANNELS 3 Zrotation Xrotation Yrotation
    JOINT RightLeg
    {
      OFFSET -0.7359 -41.0265 0
      CHANNELS 3 Zrotation Xrotation Yrotation
      JOINT RightFoot
      {
        OFFSET 0 -40.2855 0
        CHANNELS 3 Zrotation Xrotation Yrotation
        JOINT RightToeBase
        {
          OFFSET 0 -5.6122 11.7359
          CHANNELS 3 Zrotation Xrotation Yrotation
          End Site
          {
            OFFSET 0 0 7.8731
          }
        }
      }
    }
  }
  JOINT LeftUpLeg
  {
    OFFSET 9.1965 3.8864 -0.7581
    CHANNELS 3 Zrotation Xrotation Yrotation
    JOINT LeftLeg
    {
      OFFSET 0.7359 -41.0268 0
      CHANNELS 3 Zrotation Xrotation Yrotation
      JOINT LeftFoot
      {
        OFFSET 0 -40.2855 0
        CHANNELS 3 Zrotation Xrotation Yrotation
        JOINT LeftToeBase
        {
          OFFSET 0 -5.6122 11.7359
          CHANNELS 3 Zrotation Xrotation Yrotation
          End Site
          {
            OFFSET 0 0 7.8731
          }
        }
      }
    }
  }
}
MOTION
Frames:	5
Frame Time:	0.0333333
-39.747 24.7187 -14.0442 -180 -13.5596 -180 -0.127524 14.7681 -0.0812918 -0.245436 29.5365 -0.134277 -0.245436 29.5364 -0.134277 -1.41911e-006 25.5984 1.07094e-006 -2.10198e-007 17.5488 8.79492e-008 14.9646 -5.19527 0.0224882 -64.0901 7.88851 19.7573 8.77551 34.3501 -40.4099 -25.1693 31.7669 32.0259 1.89765e-006 -2.46906e-008 -1.87601e-007 1.13365e-006 -3.94344e-007 -1.30196e-007 1.89765e-006 -2.46906e-008 -1.87601e-007 1.89765e-006 -2.46906e-008 -1.87601e-007 -0.0146049 -8.92344e-005 1.52084e-006 1.89764e-006 -2.46668e-008 -1.87606e-007 1.89765e-006 -2.46906e-008 -1.87601e-007 -0.0187537 -0.00117639 5.6745e-005 1.89763e-006 -2.46617e-008 -1.87625e-007 1.89765e-006 -2.46906e-008 -1.87601e-007 -0.0122797 -0.00325153 0.000678387 1.89763e-006 -2.46842e-008 -1.87657e-007 1.89765e-006 -2.46906e-008 -1.87601e-007 1.13365e-006 -3.94344e-007 -1.30196e-007 1.89765e-006 -2.46906e-008 -1.87601e-007 -15.4183 -5.0648 0.0815456 64.6924 7.52377 -20.2654 -6.84798 35.1032 38.5813 25.0156 31.8246 -32.3406 -7.62149e-007 3.68294e-007 5.47163e-008 3.27995e-015 2.28602e-015 -0 -7.62149e-007 3.68294e-007 5.47163e-008 -7.62149e-007 3.68294e-007 5.47163e-008 0.0149653 -9.0463e-005 7.02723e-007 -7.62136e-007 3.68301e-007 5.46688e-008 -7.62149e-007 3.68294e-007 5.47163e-008 0.019003 -0.00119065 -6.89893e-005 -7.62132e-007 3.68302e-007 5.4663e-008 -7.62149e-007 3.68294e-007 5.47163e-008 0.0122885 -0.00325241 -0.00067865 -7.62139e-007 3.68293e-007 5.46978e-008 -7.62149e-007 3.68294e-007 5.47163e-008 3.27995e-015 2.28602e-015 -0 -7.62149e-007 3.68294e-007 5.47163e-008 -151.558 -43.5701 -164.278 -16.1023 37.896 13.9522 -10.513 13.9455 4.16161 1.59028e-014 -3.18055e-015 -1.59028e-015 147.916 -54.2338 158.005 9.60893 13.1952 -1.10856 7.20733 23.8252 -9.53191 9.25426e-007 1.97366e-007 1.36975e-006 
-39.7475 24.7183 -13.9451 -180 -13.9459 -180 -0.12565 14.6283 -0.0820985 -0.241238 29.2567 -0.136778 -0.241238 29.2567 -0.136778 2.52265e-007 25.3316 -3.22672e-008 -1.18695e-007 17.249 -2.05479e-008 14.4751 -4.96523 0.193524 -63.7361 7.99099 19.6542 8.85483 34.2913 -39.9555 -25.1337 32.0108 31.9329 -1.98785e-015 -9.93923e-016 -0 -1.98785e-015 1.59028e-015 -0 -1.19271e-015 -1.78906e-015 -6.36111e-015 -1.98785e-015 -9.93923e-016 -0 -0.0146115 -8.83206e-005 -1.22279e-005 -1.19271e-015 -9.93923e-016 9.54166e-015 -1.98785e-015 -9.93923e-016 -0 -0.0187514 -0.00117591 6.17551e-005 -1.19271e-015 2.98177e-015 -3.18055e-015 -1.98785e-015 -9.93923e-016 -0 -0.0122627 -0.00324584 0.000677308 1.19271e-015 2.18663e-015 -6.36111e-015 -1.98785e-015 -9.93923e-016 -0 -1.98785e-015 1.59028e-015 -0 -1.19271e-015 -1.78906e-015 -6.36111e-015 -14.9123 -4.83845 -0.0931293 64.317 7.64177 -20.1454 -6.99785 35.0125 38.1955 24.986 32.0663 -32.236 4.07509e-015 1.98785e-015 -3.18055e-015 2.48481e-015 -9.93923e-016 -1.27222e-014 3.67752e-015 -2.38542e-015 -6.36111e-015 4.07509e-015 1.98785e-015 -3.18055e-015 0.0150137 -9.03152e-005 1.37882e-006 -1.68967e-015 1.98785e-016 9.54166e-015 4.07509e-015 1.98785e-015 -3.18055e-015 0.0189843 -0.00119065 -6.24473e-005 1.81402e-007 2.28229e-007 2.83661e-006 4.07509e-015 1.98785e-015 -3.18055e-015 0.0122389 -0.00323969 -0.000669848 5.96354e-016 1.39149e-015 -9.54166e-015 4.07509e-015 1.98785e-015 -3.18055e-015 2.48481e-015 -9.93923e-016 -1.27222e-014 3.67752e-015 -2.38542e-015 -6.36111e-015 -151.712 -43.2626 -164.368 -16.1014 37.8944 13.9506 -10.452 14.002 4.02589 9.14072e-007 -2.78861e-006 -5.04854e-007 147.972 -53.947 158.035 9.60832 13.1798 -1.10542 7.18692 23.9165 -9.38659 -2.66324e-006 1.32486e-006 -4.55827e-006 
-39.748 24.7175 -13.846 180 -14.3322 180 -0.12378 14.4883 -0.0828973 -0.237066 28.9767 -0.139244 -0.237066 28.9768 -0.139244 1.74161e-007 25.0652 -3.36409e-007 -2.41666e-008 16.9491 -2.39719e-007 13.9849 -4.73649 0.366564 -63.3817 8.09285 19.5503 8.9347 34.233 -39.5012 -25.0975 32.2547 31.8394 7.64973e-007 3.67288e-007 -5.74985e-008 -7.64973e-007 -3.67288e-007 5.74985e-008 -3.67288e-007 7.64973e-007 7.44227e-008 7.64973e-007 3.67288e-007 -5.74985e-008 -0.0146074 -8.91644e-005 3.32639e-006 -3.67295e-007 7.64964e-007 7.45205e-008 7.64973e-007 3.67288e-007 -5.74985e-008 -0.0187551 -0.00117616 6.06152e-005 -3.67296e-007 7.64961e-007 7.45518e-008 7.64973e-007 3.67288e-007 -5.74985e-008 -0.0122631 -0.00324741 0.00067422 -3.67287e-007 7.64966e-007 7.45154e-008 7.64973e-007 3.67288e-007 -5.74985e-008 -7.64973e-007 -3.67288e-007 5.74985e-008 -3.67288e-007 7.64973e-007 7.44227e-008 -14.4055 -4.61348 -0.269854 63.9411 7.75901 -20.0245 -7.14836 34.9225 37.8096 24.9558 32.308 -32.1311 1.30898e-006 6.18217e-007 2.66418e-006 2.03595e-007 4.66133e-007 6.89963e-008 5.45847e-007 9.84255e-007 2.71942e-006 1.30898e-006 6.18217e-007 2.66418e-006 0.0150016 -9.09512e-005 6.15412e-006 3.66045e-007 7.63123e-007 -9.76628e-008 1.30898e-006 6.18217e-007 2.66418e-006 0.0190077 -0.00119128 -6.30734e-005 3.66046e-007 7.63119e-007 -9.7693e-008 1.30898e-006 6.18217e-007 2.66418e-006 0.0122378 -0.00323949 -0.000670954 5.47411e-007 9.84153e-007 2.71922e-006 1.30898e-006 6.18217e-007 2.66418e-006 2.03595e-007 4.66133e-007 6.89963e-008 5.45847e-007 9.84255e-007 2.71942e-006 -151.864 -42.9549 -164.456 -16.1004 37.8928 13.9489 -10.3907 14.0583 3.89007 6.36111e-015 3.18055e-015 -1.59028e-015 148.028 -53.6602 158.064 9.60771 13.1644 -1.1023 7.16626 24.0077 -9.2411 6.85588e-007 -1.92133e-007 -4.60603e-007 
-39.7485 24.7163 -13.7467 180 -14.7187 180 -0.121914 14.3482 -0.0836875 -0.23292 28.6966 -0.141675 -0.23292 28.6965 -0.141675 7.45662e-007 24.7985 -3.36609e-007 -3.38324e-008 16.6492 -5.12952e-008 13.4938 -4.50915 0.541616 -63.0269 8.19408 19.4458 9.01509 34.1752 -39.0468 -25.0607 32.4985 31.7455 1.98785e-015 3.97569e-016 3.18055e-015 1.19271e-015 -3.97569e-016 -6.36111e-015 1.98785e-015 -1.98785e-016 -9.54166e-015 1.98785e-015 3.97569e-016 3.18055e-015 -0.0146127 -8.87086e-005 1.23927e-006 -6.62086e-032 -5.96354e-016 -6.36111e-015 1.98785e-015 3.97569e-016 3.18055e-015 -0.0187591 -0.00117554 5.92797e-005 3.97252e-031 -3.57812e-015 6.36111e-015 1.98785e-015 3.97569e-016 3.18055e-015 -0.0122795 -0.00325117 0.000672325 -3.45954e-007 -3.91057e-007 2.83408e-007 1.98785e-015 3.97569e-016 3.18055e-015 1.19271e-015 -3.97569e-016 -6.36111e-015 1.98785e-015 -1.98785e-016 -9.54166e-015 -13.8978 -4.38996 -0.448621 63.5648 7.8755 -19.9029 -7.29954 34.8334 37.4237 24.9251 32.5497 -32.0256 2.03107e-007 4.70106e-007 7.9612e-008 -5.83002e-007 5.79544e-007 2.85293e-006 2.03107e-007 4.70106e-007 7.96118e-008 2.03107e-007 4.70106e-007 7.9612e-008 0.0149979 -9.17264e-005 3.96565e-006 1.62827e-007 2.93485e-007 -1.77453e-007 2.03107e-007 4.70106e-007 7.9612e-008 0.0190277 -0.00119333 -6.61217e-005 1.63097e-007 2.93405e-007 -1.7747e-007 2.03107e-007 4.70106e-007 7.9612e-008 0.0122271 -0.00323607 -0.000674492 1.62634e-007 2.93279e-007 -1.77496e-007 2.03107e-007 4.70106e-007 7.9612e-008 -5.83002e-007 5.79544e-007 2.85293e-006 2.03107e-007 4.70106e-007 7.96118e-008 -152.014 -42.6469 -164.543 -16.0995 37.8912 13.9473 -10.3292 14.1146 3.75413 2.78918e-006 9.17709e-007 -1.66888e-006 148.083 -53.3733 158.092 9.6071 13.1489 -1.09916 7.14533 24.099 -9.09548 -1.15226e-006 -5.9075e-007 -3.20331e-006 
-39.7491 24.7148 -13.6474 180 -15.1052 180 -0.120051 14.208 -0.0844696 -0.2288 28.4161 -0.14407 -0.2288 28.4162 -0.14407 9.40121e-007 24.5319 -9.82787e-007 -1.22687e-007 16.3493 -1.55226e-007 13.0019 -4.2832 0.718647 -62.6717 8.29471 19.3407 9.09598 34.1179 -38.5925 -25.0233 32.7423 31.6511 7.6592e-007 3.64971e-007 -5.75167e-008 -2.64834e-031 1.59028e-015 9.54166e-015 -1.13089e-006 4.00949e-007 1.33565e-007 7.6592e-007 3.64971e-007 -5.75167e-008 -0.0146104 -8.94304e-005 -5.20912e-006 -1.13089e-006 4.00932e-007 1.33617e-007 7.6592e-007 3.64971e-007 -5.75167e-008 -0.0187521 -0.00117639 6.25739e-005 -1.13089e-006 4.00928e-007 1.33643e-007 7.6592e-007 3.64971e-007 -5.75167e-008 -0.0122669 -0.00324648 0.000683056 -1.13088e-006 4.00942e-007 1.3364e-007 7.6592e-007 3.64971e-007 -5.75167e-008 -2.64834e-031 1.59028e-015 9.54166e-015 -1.13089e-006 4.00949e-007 1.33565e-007 -13.3893 -4.16791 -0.629411 63.188 7.99121 -19.7804 -7.4513 34.7451 37.0378 24.8937 32.7914 -31.9197 -1.89202e-006 -3.64613e-008 2.09439e-007 -1.89202e-006 -3.64613e-008 2.09439e-007 -1.12792e-006 -4.00281e-007 1.53741e-007 -1.89202e-006 -3.64613e-008 2.09439e-007 0.0150349 -9.22519e-005 3.7993e-006 -1.12791e-006 -4.00261e-007 1.53794e-007 -1.89202e-006 -3.64613e-008 2.09439e-007 0.0190022 -0.00119064 -6.10051e-005 -1.08916e-006 -2.16277e-007 4.32131e-007 -1.89202e-006 -3.64613e-008 2.09439e-007 0.0122545 -0.00324523 -0.000671556 -1.12791e-006 -4.00272e-007 1.53815e-007 -1.89202e-006 -3.64613e-008 2.09439e-007 -1.89202e-006 -3.64613e-008 2.09439e-007 -1.12792e-006 -4.00281e-007 1.53741e-007 -152.164 -42.3387 -164.628 -16.0987 37.8897 13.9458 -10.2677 14.1706 3.61809 1.18482e-006 -1.73786e-006 -1.96355e-006 148.137 -53.0865 158.12 9.60648 13.1333 -1.09604 7.12415 24.1902 -8.94972 2.28957e-006 -1.89623e-007 4.55572e-007 
